<svg id="Group_1" data-name="Group 1" xmlns="http://www.w3.org/2000/svg" xmlns:xlink="http://www.w3.org/1999/xlink" width="128.285" height="129.598" viewBox="0 0 128.285 129.598">
  <defs>
    <clipPath id="clip-path">
      <rect id="Rectangle_1" data-name="Rectangle 1" width="128.285" height="129.598" fill="none"/>
    </clipPath>
  </defs>
  <g id="Group_15" data-name="Group 15" clip-path="url(#clip-path)">
    <path id="Path_54" data-name="Path 54" d="M102.531,166.218a6.249,6.249,0,0,0-2.835-.632h-6.91v16.538h3.678V176.1H99.7a6.146,6.146,0,0,0,2.835-.645,4.97,4.97,0,0,0,2-1.827,5.681,5.681,0,0,0,0-5.6,4.9,4.9,0,0,0-2-1.815m-1.242,5.927a2.143,2.143,0,0,1-.89.82,2.736,2.736,0,0,1-1.241.281H96.464v-4.8h2.694a2.74,2.74,0,0,1,1.241.281,2.15,2.15,0,0,1,.89.821,2.431,2.431,0,0,1,.328,1.288,2.479,2.479,0,0,1-.328,1.312" transform="translate(-62.381 -111.326)" fill="#90ceca"/>
    <path id="Path_55" data-name="Path 55" d="M139.237,188.226l-2.269-6.914H133.1l4.345,10.6-2.588,5.584h3.678l2.014-4.755,4.872-11.431h-3.865Z" transform="translate(-89.487 -121.899)" fill="#90ceca"/>
    <path id="Path_56" data-name="Path 56" d="M184.146,178.1a5.6,5.6,0,0,1-2.2.4,5.1,5.1,0,0,1-1.979-.375,4.453,4.453,0,0,1-1.546-1.054,4.825,4.825,0,0,1-1.007-1.64,5.982,5.982,0,0,1-.363-2.132,5.913,5.913,0,0,1,.363-2.108,4.822,4.822,0,0,1,1.007-1.64,4.33,4.33,0,0,1,1.546-1.042,5.256,5.256,0,0,1,1.979-.363,5.385,5.385,0,0,1,2.143.4,4.647,4.647,0,0,1,1.581,1.1l2.46-2.483a8.528,8.528,0,0,0-2.682-1.733,9.122,9.122,0,0,0-3.5-.632,9.014,9.014,0,0,0-3.432.644,8.449,8.449,0,0,0-2.752,1.792,8.2,8.2,0,0,0-1.827,2.705,8.941,8.941,0,0,0,0,6.723,8.369,8.369,0,0,0,4.6,4.544,9.012,9.012,0,0,0,3.432.644,9.25,9.25,0,0,0,3.549-.633,9.118,9.118,0,0,0,2.729-1.733L185.762,177a4.873,4.873,0,0,1-1.616,1.1" transform="translate(-116.496 -110.797)" fill="#90ceca"/>
    <path id="Path_57" data-name="Path 57" d="M230.447,181.3a6.5,6.5,0,0,0-3.186-.773,6.423,6.423,0,0,0-3.186.785,5.981,5.981,0,0,0-2.225,2.12,5.655,5.655,0,0,0-.82,3.022,5.776,5.776,0,0,0,.82,3.045,5.9,5.9,0,0,0,2.237,2.143,6.835,6.835,0,0,0,6.36,0,5.927,5.927,0,0,0,2.225-2.143,5.782,5.782,0,0,0,.82-3.045,5.723,5.723,0,0,0-.82-3.034,5.873,5.873,0,0,0-2.225-2.12m-.925,6.57a2.279,2.279,0,0,1-.9.96,2.659,2.659,0,0,1-1.359.339,2.611,2.611,0,0,1-1.335-.339,2.351,2.351,0,0,1-.914-.96,3.15,3.15,0,0,1,0-2.8,2.371,2.371,0,0,1,.914-.949,2.816,2.816,0,0,1,2.682,0,2.423,2.423,0,0,1,.9.937,2.854,2.854,0,0,1,.328,1.394,3.078,3.078,0,0,1-.316,1.417" transform="translate(-148.601 -121.369)" fill="#90ceca"/>
    <path id="Path_58" data-name="Path 58" d="M275.033,182.775a4.379,4.379,0,0,0-1.534-1.581,4.187,4.187,0,0,0-2.237-.6,4.97,4.97,0,0,0-2.354.55,4.151,4.151,0,0,0-.832.585v-.9h-3.584v11.384h3.584v-6.489a2.087,2.087,0,0,1,.258-1.042,1.785,1.785,0,0,1,.7-.7,2.093,2.093,0,0,1,1.031-.246,1.89,1.89,0,0,1,1.394.55,1.949,1.949,0,0,1,.551,1.441v6.489H275.6v-7.285a4.268,4.268,0,0,0-.562-2.155" transform="translate(-177.822 -121.418)" fill="#90ceca"/>
    <path id="Path_59" data-name="Path 59" d="M127.616,51.709A64.78,64.78,0,0,0,1.55,48.2c-.093.352-.19.708-.287,1.068-.9,3.314-1.92,7.069-.706,10.567a9.442,9.442,0,0,0,7.508,6.195,9.281,9.281,0,0,0,1.319.095,9.393,9.393,0,0,0,9.133-7.314l.146-.38.034-.113c1.34-6.251,3.271-13.467,7.441-19.6a45.672,45.672,0,0,1,14.723-13.7,46.41,46.41,0,0,1,19.817-6.1c1.157-.085,2.333-.127,3.494-.127A45.464,45.464,0,0,1,92.91,28.882a46.166,46.166,0,0,1,16.007,25.31l.625,2.644.843-2.588c.048-.147,1.235-3.613,6.795-5a9.1,9.1,0,0,1,9.087,3.083l2.005,2.589ZM116.81,47.767a11.8,11.8,0,0,0-6.886,4.223,47.512,47.512,0,0,0-45.753-34.72c-1.2,0-2.411.044-3.606.131A47.94,47.94,0,0,0,40.1,23.7,47.208,47.208,0,0,0,24.878,37.864c-4.3,6.326-6.289,13.694-7.659,20.075l-.145.378-.033.112A7.826,7.826,0,0,1,2,59.334c-1.06-3.053-.146-6.416.736-9.668.1-.364.2-.724.29-1.079a62.805,62.805,0,0,1,8.458-18.8A63.253,63.253,0,0,1,125.579,49.6a10.152,10.152,0,0,0-8.769-1.834" transform="translate(0)" fill="#90ceca"/>
    <path id="Path_60" data-name="Path 60" d="M15.472,168.175a2.54,2.54,0,1,0,2.54,2.54,2.54,2.54,0,0,0-2.54-2.54" transform="translate(-8.694 -113.066)" fill="#90ceca"/>
    <path id="Path_61" data-name="Path 61" d="M83.671,51.9A3.228,3.228,0,0,0,82.2,50.862a3.046,3.046,0,0,0-1.683-.066,3.9,3.9,0,0,0-1.606.832l-1.543,1.294h0L75.61,54.394l6.618,7.9,1.756-1.472-2.409-2.874,1.543-1.294a3.832,3.832,0,0,0,1.1-1.442,3.1,3.1,0,0,0,.225-1.673,3.227,3.227,0,0,0-.768-1.632M82.2,54.87a1.709,1.709,0,0,1-.48.631l-1.286,1.078-1.922-2.293L79.8,53.209a1.7,1.7,0,0,1,.705-.362,1.334,1.334,0,0,1,.753.035,1.51,1.51,0,0,1,.672.483,1.543,1.543,0,0,1,.369.758,1.338,1.338,0,0,1-.1.748" transform="translate(-50.834 -34.092)" fill="#90ceca"/>
    <path id="Path_62" data-name="Path 62" d="M115.945,34.9a5.39,5.39,0,0,0-1.316-1.7,5.138,5.138,0,0,0-1.786-.994,5.273,5.273,0,0,0-2.043-.227,5.933,5.933,0,0,0-3.829,1.935,5.181,5.181,0,0,0-1.28,3.793,5.582,5.582,0,0,0,1.891,3.744,5.155,5.155,0,0,0,1.8,1,5.4,5.4,0,0,0,2.057.236,5.555,5.555,0,0,0,2.106-.606,5.49,5.49,0,0,0,1.711-1.322,5.29,5.29,0,0,0,1.02-1.782,5.186,5.186,0,0,0,.253-2.024,5.352,5.352,0,0,0-.579-2.053m-2.117,4.241a3.113,3.113,0,0,1-1.255,1.092,3.262,3.262,0,0,1-1.226.358,2.711,2.711,0,0,1-1.165-.155,3,3,0,0,1-1.017-.638,3.847,3.847,0,0,1-.794-1.087,3.607,3.607,0,0,1-.428-1.688,2.748,2.748,0,0,1,.451-1.487,3.157,3.157,0,0,1,1.258-1.085,3.3,3.3,0,0,1,1.215-.361,2.736,2.736,0,0,1,1.162.148,2.956,2.956,0,0,1,1.02.629,3.764,3.764,0,0,1,.791,1.079,3.66,3.66,0,0,1,.428,1.689,2.769,2.769,0,0,1-.441,1.506" transform="translate(-71.049 -21.488)" fill="#90ceca"/>
    <path id="Path_63" data-name="Path 63" d="M146.77,25.815a2.936,2.936,0,0,0,.943-1.316,3.069,3.069,0,0,0-.742-3.071,2.988,2.988,0,0,0-1.429-.758,3.965,3.965,0,0,0-1.835.046l-1.858.449h0l-2.227.538,2.419,10.014,2.227-.537-1-4.128.233-.056,3.984,3.406,2.638-.637L145.9,26.334a3.719,3.719,0,0,0,.871-.52m-1.362-1.383a1.484,1.484,0,0,1-.946.589l-1.588.384-.607-2.51,1.6-.387a1.425,1.425,0,0,1,1.107.107,1.368,1.368,0,0,1,.432,1.817" transform="translate(-93.87 -13.838)" fill="#90ceca"/>
    <path id="Path_64" data-name="Path 64" d="M176.941,15.77l-8.721.581.133,1.995,3.218-.215.552,8.285,2.286-.152-.552-8.285,3.218-.215Z" transform="translate(-113.097 -10.602)" fill="#90ceca"/>
    <path id="Path_65" data-name="Path 65" d="M206.358,22.848a2.1,2.1,0,0,1-.351,1.031,1.768,1.768,0,0,1-.753.62,2.085,2.085,0,0,1-1.039.147,2.148,2.148,0,0,1-.988-.332,1.769,1.769,0,0,1-.656-.756,2.083,2.083,0,0,1-.164-1.085l.58-6.351-2.3-.21-.568,6.22a4.313,4.313,0,0,0,.346,2.222,3.9,3.9,0,0,0,1.375,1.628,4.538,4.538,0,0,0,2.181.742,4.49,4.49,0,0,0,2.272-.335,3.873,3.873,0,0,0,1.632-1.346,4.316,4.316,0,0,0,.736-2.116l.57-6.234-2.3-.21Z" transform="translate(-134.531 -10.698)" fill="#90ceca"/>
    <path id="Path_66" data-name="Path 66" d="M242,29.6l.1-.321L236.9,27.735l-.555,1.859,2.819.89a2.771,2.771,0,0,1-.378.5,2.346,2.346,0,0,1-1.22.671A3.205,3.205,0,0,1,236,31.546,3.018,3.018,0,0,1,234.6,30.7a2.9,2.9,0,0,1-.709-1.4A3.509,3.509,0,0,1,234,27.569a3.421,3.421,0,0,1,.866-1.5,2.855,2.855,0,0,1,1.391-.758,3.255,3.255,0,0,1,1.667.079,3.476,3.476,0,0,1,1.362.742,3.234,3.234,0,0,1,.843,1.256l1.943-1.049a4.935,4.935,0,0,0-1.347-1.788,5.905,5.905,0,0,0-2.176-1.151,5.775,5.775,0,0,0-2.184-.233,5.388,5.388,0,0,0-2.006.574,5.23,5.23,0,0,0-1.608,1.279,5.128,5.128,0,0,0-1,1.879,5.258,5.258,0,0,0,1.733,5.649,5.449,5.449,0,0,0,1.9.995,5.556,5.556,0,0,0,2.777.159,4.493,4.493,0,0,0,2.307-1.3A6.637,6.637,0,0,0,242,29.6" transform="translate(-155.65 -15.56)" fill="#90ceca"/>
    <path id="Path_67" data-name="Path 67" d="M266.371,37.278l-8.607,6.982,2.074,1.164,1.512-1.293,3.521,1.978-.325,1.959,2.112,1.186,1.52-10.962ZM265.2,44.149l-2.334-1.311,2.974-2.543Z" transform="translate(-173.298 -25.063)" fill="#90ceca"/>
    <path id="Path_68" data-name="Path 68" d="M292.848,51.621l-6.727,7.8,1.735,1.5,3.459,2.982,1.315-1.525-3.459-2.982,5.412-6.277Z" transform="translate(-192.363 -34.705)" fill="#90ceca"/>
    <path id="Path_69" data-name="Path 69" d="M54.815,187.826c.019-.182.02-.286.02-.286-.009.1-.012.191-.02.286" transform="translate(-36.853 -126.086)" fill="#90ceca"/>
    <path id="Path_70" data-name="Path 70" d="M172.493,359.389a2.234,2.234,0,0,0-2.646-.361,2.687,2.687,0,0,0-1.032,1.187,8.06,8.06,0,0,0-.572,4.3,2.8,2.8,0,0,0,.683,1.434,2.2,2.2,0,0,0,2.646.361,2.838,2.838,0,0,0,1.035-1.2,7.806,7.806,0,0,0,.572-4.3,2.835,2.835,0,0,0-.685-1.424" transform="translate(-113.049 -241.19)" fill="#90ceca"/>
    <path id="Path_71" data-name="Path 71" d="M125.622,160.926a8.585,8.585,0,0,0-14.474,6.444l-.06.46c.179,7.27-.173,14.382-2.708,21.079a46.3,46.3,0,0,1-11.3,17.044,47.03,47.03,0,0,1-18.139,10.733q-1.692.54-3.421.955a46.75,46.75,0,0,1-57.492-49.281c-.129,1.242-1.113,6.131-8.645,6.574-7.622.448-8.635-6.095-8.635-6.095a56.13,56.13,0,0,0,1.63,18.314A64.009,64.009,0,0,0,128.6,173.665c.1-4.32.583-9.379-2.978-12.739M52.1,224.163a4.576,4.576,0,0,1-.652,1.206,4.334,4.334,0,0,1-1.009.934,10.6,10.6,0,0,1-1.534.842l-3.14,1.433,4.363,1.615-.815,2.2L40.975,229.3l.535-1.445,6.152-2.951a6.514,6.514,0,0,0,.937-.513,3.071,3.071,0,0,0,.6-.514,1.841,1.841,0,0,0,.343-.574,1.433,1.433,0,0,0-.043-1.22,1.77,1.77,0,0,0-1-.808,2.319,2.319,0,0,0-1.376-.09,4.048,4.048,0,0,0-1.506.815l-1.171-2.132a4.974,4.974,0,0,1,2.408-1.107,5.292,5.292,0,0,1,2.666.315,4.863,4.863,0,0,1,1.913,1.212,3.457,3.457,0,0,1,.895,1.77,3.963,3.963,0,0,1-.227,2.1m11.178,4.311a7.636,7.636,0,0,1-1.127,3.224A5.5,5.5,0,0,1,60,233.664a4.693,4.693,0,0,1-2.77.436,4.754,4.754,0,0,1-2.567-1.154,5.474,5.474,0,0,1-1.587-2.481,8.44,8.44,0,0,1,.872-6.615,5.411,5.411,0,0,1,2.151-1.957,4.99,4.99,0,0,1,5.364.714,5.468,5.468,0,0,1,1.571,2.461,7.632,7.632,0,0,1,.245,3.406m1.914,6-.151-1.533,4.241-5.346a6.594,6.594,0,0,0,.618-.87,3.11,3.11,0,0,0,.316-.727,1.835,1.835,0,0,0,.058-.666,1.436,1.436,0,0,0-.573-1.078,1.77,1.77,0,0,0-1.252-.289,2.315,2.315,0,0,0-1.277.522,4.042,4.042,0,0,0-1,1.391L64.19,224.47a4.982,4.982,0,0,1,1.681-2.049,5.3,5.3,0,0,1,2.535-.883,4.858,4.858,0,0,1,2.251.253,3.455,3.455,0,0,1,1.579,1.2,3.962,3.962,0,0,1,.715,1.989,4.561,4.561,0,0,1-.059,1.369,4.345,4.345,0,0,1-.5,1.281,10.637,10.637,0,0,1-1.012,1.429l-2.2,2.662,4.631-.457.231,2.335Zm11.083-1.266-.408-1.486,3.277-5.985a6.574,6.574,0,0,0,.462-.962A3.071,3.071,0,0,0,79.8,224a1.846,1.846,0,0,0-.056-.666,1.434,1.434,0,0,0-.746-.967,1.777,1.777,0,0,0-1.283-.074,2.323,2.323,0,0,0-1.17.73,4.054,4.054,0,0,0-.748,1.54l-2.2-1.049a4.976,4.976,0,0,1,1.31-2.3,5.3,5.3,0,0,1,2.349-1.3,4.866,4.866,0,0,1,2.261-.13,3.464,3.464,0,0,1,1.759.915,3.966,3.966,0,0,1,1.04,1.839,4.573,4.573,0,0,1,.174,1.36,4.353,4.353,0,0,1-.275,1.347,10.613,10.613,0,0,1-.756,1.578l-1.715,3,4.487-1.232.622,2.262Zm45.86-63.858a2.54,2.54,0,1,1,2.54-2.54,2.54,2.54,0,0,1-2.54,2.54" transform="translate(-0.392 -106.62)" fill="#90ceca"/>
  </g>
</svg>
