<svg id="Group_445" data-name="Group 445" xmlns="http://www.w3.org/2000/svg" xmlns:xlink="http://www.w3.org/1999/xlink" width="72.914" height="33.402" viewBox="0 0 72.914 33.402">
  <defs>
    <clipPath id="clip-path">
      <rect id="Rectangle_110" data-name="Rectangle 110" width="72.914" height="33.402" fill="none"/>
    </clipPath>
  </defs>
  <g id="Group_444" data-name="Group 444" clip-path="url(#clip-path)">
    <path id="Path_137" data-name="Path 137" d="M40.367,138.183c0-.047.005-.074.005-.074,0,.025,0,.049-.005.074" transform="translate(-35.738 -122.27)" fill="#90ceca"/>
    <path id="Path_138" data-name="Path 138" d="M33.392,117.391a2.213,2.213,0,0,0-3.73,1.661l-.016.119a14.171,14.171,0,0,1-.7,5.433A11.933,11.933,0,0,1,26.035,129a12.121,12.121,0,0,1-4.675,2.766q-.436.139-.882.246a12.049,12.049,0,0,1-14.818-12.7c-.033.32-.287,1.58-2.228,1.694a1.97,1.97,0,0,1-2.225-1.571,14.466,14.466,0,0,0,.42,4.72,16.5,16.5,0,0,0,32.532-3.476c.025-1.113.15-2.417-.768-3.283m-.9,2.17a.655.655,0,1,1,.654-.654.654.654,0,0,1-.654.654" transform="translate(-1.031 -103.394)" fill="#90ceca"/>
    <path id="Path_139" data-name="Path 139" d="M32.89,13.327A16.7,16.7,0,0,0,.4,12.422c-.024.091-.049.183-.074.275a4.644,4.644,0,0,0-.182,2.723,2.433,2.433,0,0,0,1.935,1.6,2.388,2.388,0,0,0,.34.024,2.421,2.421,0,0,0,2.354-1.885l.038-.1.009-.029A14.146,14.146,0,0,1,6.736,9.98a11.772,11.772,0,0,1,3.795-3.532,11.961,11.961,0,0,1,5.107-1.572c.3-.022.6-.033.9-.033a11.718,11.718,0,0,1,7.407,2.6,11.9,11.9,0,0,1,4.126,6.523l.161.681.217-.667A2.292,2.292,0,0,1,30.2,12.692a2.346,2.346,0,0,1,2.342.795l.517.667Zm-2.785-1.016A3.041,3.041,0,0,0,28.331,13.4,12.246,12.246,0,0,0,16.539,4.451c-.309,0-.621.011-.929.034a12.355,12.355,0,0,0-5.276,1.624,12.166,12.166,0,0,0-3.922,3.65,14.473,14.473,0,0,0-1.974,5.174l-.038.1-.008.029a2.017,2.017,0,0,1-3.877.233A4.291,4.291,0,0,1,.7,12.8c.025-.094.051-.186.075-.278a16.185,16.185,0,0,1,2.18-4.846,16.3,16.3,0,0,1,29.407,5.107,2.617,2.617,0,0,0-2.26-.473" transform="translate(0)" fill="#90ceca"/>
    <path id="Path_140" data-name="Path 140" d="M10.178,123.849a.655.655,0,1,0,.654.654.654.654,0,0,0-.654-.654" transform="translate(-8.432 -109.646)" fill="#90ceca"/>
    <path id="Path_141" data-name="Path 141" d="M336.433,182.244a9.2,9.2,0,0,0,.993-1.145,3.76,3.76,0,0,0,.538-1.061,3.954,3.954,0,0,0,.167-1.175,3.429,3.429,0,0,0-.447-1.774,2.992,2.992,0,0,0-1.258-1.167,4.209,4.209,0,0,0-1.918-.409,4.584,4.584,0,0,0-2.259.546,4.306,4.306,0,0,0-1.622,1.622l1.592,1.38a3.5,3.5,0,0,1,.978-1.114,2,2,0,0,1,1.145-.341,1.529,1.529,0,0,1,1.053.356,1.24,1.24,0,0,1,.4.978,1.6,1.6,0,0,1-.106.568,2.682,2.682,0,0,1-.333.6,5.7,5.7,0,0,1-.606.7l-4.108,4.245v1.334h7.7v-2.031h-4.028Z" transform="translate(-292.71 -155.385)" fill="#90ceca"/>
    <path id="Path_142" data-name="Path 142" d="M413.266,176.2a4.321,4.321,0,0,0-4.684,0,4.692,4.692,0,0,0-1.622,1.925,7.307,7.307,0,0,0,.008,5.776,4.734,4.734,0,0,0,1.645,1.948,4.114,4.114,0,0,0,2.335.7,4.065,4.065,0,0,0,2.327-.69,4.756,4.756,0,0,0,1.622-1.933,7.3,7.3,0,0,0,0-5.791,4.737,4.737,0,0,0-1.63-1.933m-.432,6.7a2.455,2.455,0,0,1-.75,1.152,1.907,1.907,0,0,1-2.312-.007,2.429,2.429,0,0,1-.75-1.152,6.985,6.985,0,0,1,0-3.76,2.332,2.332,0,0,1,.75-1.137,1.936,1.936,0,0,1,2.312.007,2.457,2.457,0,0,1,.75,1.145,6.767,6.767,0,0,1,0,3.752" transform="translate(-359.765 -155.385)" fill="#90ceca"/>
    <path id="Path_143" data-name="Path 143" d="M499.019,182.244a9.182,9.182,0,0,0,.993-1.145,3.76,3.76,0,0,0,.538-1.061,3.953,3.953,0,0,0,.167-1.175,3.429,3.429,0,0,0-.447-1.774,2.992,2.992,0,0,0-1.258-1.167,4.209,4.209,0,0,0-1.918-.409,4.584,4.584,0,0,0-2.259.546,4.306,4.306,0,0,0-1.622,1.622l1.592,1.38a3.5,3.5,0,0,1,.978-1.114,2,2,0,0,1,1.144-.341,1.529,1.529,0,0,1,1.054.356,1.24,1.24,0,0,1,.4.978,1.6,1.6,0,0,1-.106.568,2.682,2.682,0,0,1-.333.6,5.7,5.7,0,0,1-.606.7l-4.108,4.245v1.334h7.7v-2.031H496.9Z" transform="translate(-436.65 -155.385)" fill="#90ceca"/>
    <path id="Path_144" data-name="Path 144" d="M571.453,184.351l2.118-2.107a9.19,9.19,0,0,0,.993-1.144,3.761,3.761,0,0,0,.538-1.061,3.953,3.953,0,0,0,.167-1.175,3.428,3.428,0,0,0-.447-1.774,2.993,2.993,0,0,0-1.258-1.167,4.208,4.208,0,0,0-1.918-.409,4.583,4.583,0,0,0-2.259.546,4.305,4.305,0,0,0-1.622,1.622l1.592,1.38a3.5,3.5,0,0,1,.978-1.114,2,2,0,0,1,1.145-.341,1.53,1.53,0,0,1,1.053.356,1.24,1.24,0,0,1,.4.978,1.6,1.6,0,0,1-.106.568,2.68,2.68,0,0,1-.334.6,5.693,5.693,0,0,1-.606.7l-4.108,4.245v1.334h7.7v-2.031Z" transform="translate(-502.652 -155.385)" fill="#90ceca"/>
    <path id="Path_145" data-name="Path 145" d="M333.47,121.782a1.751,1.751,0,0,0-.794-.177h-1.936v4.633h1.03v-1.686h.906a1.722,1.722,0,0,0,.794-.181,1.39,1.39,0,0,0,.561-.512,1.591,1.591,0,0,0,0-1.568,1.368,1.368,0,0,0-.561-.509m-.348,1.66a.6.6,0,0,1-.249.23.767.767,0,0,1-.348.079h-.755v-1.345h.755a.764.764,0,0,1,.348.079.6.6,0,0,1,.249.23.68.68,0,0,1,.092.361.694.694,0,0,1-.092.368" transform="translate(-292.811 -107.659)" fill="#90ceca"/>
    <path id="Path_146" data-name="Path 146" d="M368.784,121.6a2.375,2.375,0,0,0-.774-.506,2.667,2.667,0,0,0-1.929,0,2.332,2.332,0,0,0-1.283,1.263,2.514,2.514,0,0,0,0,1.887,2.323,2.323,0,0,0,.518.764,2.43,2.43,0,0,0,.778.512,2.5,2.5,0,0,0,.968.184,2.47,2.47,0,0,0,.955-.184,2.373,2.373,0,0,0,.771-.509,2.334,2.334,0,0,0,.512-.761,2.522,2.522,0,0,0,0-1.89,2.312,2.312,0,0,0-.515-.761m-.528,2.467a1.246,1.246,0,0,1-.482.515,1.4,1.4,0,0,1-.725.184,1.469,1.469,0,0,1-.564-.105,1.22,1.22,0,0,1-.436-.3,1.35,1.35,0,0,1-.279-.462,1.726,1.726,0,0,1-.1-.6,1.623,1.623,0,0,1,.17-.764,1.234,1.234,0,0,1,.482-.505,1.421,1.421,0,0,1,.725-.181,1.493,1.493,0,0,1,.561.1,1.231,1.231,0,0,1,.436.3,1.333,1.333,0,0,1,.282.459,1.7,1.7,0,0,1,.1.594,1.647,1.647,0,0,1-.171.764" transform="translate(-322.799 -107.051)" fill="#90ceca"/>
    <path id="Path_147" data-name="Path 147" d="M415.487,124.158a1.318,1.318,0,0,0,.551-.476,1.382,1.382,0,0,0,0-1.421,1.344,1.344,0,0,0-.545-.482,1.783,1.783,0,0,0-.807-.174H412.8v4.633h1.03v-1.91h.107l1.382,1.91h1.221l-1.486-1.945a1.676,1.676,0,0,0,.436-.135m-1.66-1.752h.741a.641.641,0,0,1,.473.164.616.616,0,0,1,0,.84.669.669,0,0,1-.476.158h-.735Z" transform="translate(-365.455 -107.659)" fill="#90ceca"/>
    <path id="Path_148" data-name="Path 148" d="M445.183,122.5h1.45v3.734h1.031V122.5h1.45v-.9h-3.931Z" transform="translate(-394.128 -107.659)" fill="#90ceca"/>
    <path id="Path_149" data-name="Path 149" d="M486.454,124.479a.94.94,0,0,1-.115.476.8.8,0,0,1-.311.308.938.938,0,0,1-.46.108.966.966,0,0,1-.456-.108.8.8,0,0,1-.325-.312.939.939,0,0,1-.118-.479V121.6h-1.037v2.809a1.939,1.939,0,0,0,.246.981,1.752,1.752,0,0,0,.682.673,2.039,2.039,0,0,0,1.007.243,2.018,2.018,0,0,0,1-.243,1.741,1.741,0,0,0,.676-.669,1.942,1.942,0,0,0,.243-.978V121.6h-1.037Z" transform="translate(-428.168 -107.659)" fill="#90ceca"/>
    <path id="Path_150" data-name="Path 150" d="M524.7,123.929l1.329.021a1.237,1.237,0,0,1-.1.264,1.049,1.049,0,0,1-.44.446,1.434,1.434,0,0,1-.692.154,1.357,1.357,0,0,1-.709-.184,1.308,1.308,0,0,1-.486-.512,1.578,1.578,0,0,1-.177-.761,1.532,1.532,0,0,1,.18-.758,1.28,1.28,0,0,1,.5-.505,1.462,1.462,0,0,1,.728-.181,1.561,1.561,0,0,1,.682.144,1.452,1.452,0,0,1,.525.433l.7-.7a2.219,2.219,0,0,0-.81-.6,2.655,2.655,0,0,0-1.086-.217,2.6,2.6,0,0,0-.971.181,2.424,2.424,0,0,0-.79.505,2.347,2.347,0,0,0-.528.758,2.3,2.3,0,0,0-.191.938,2.364,2.364,0,0,0,1.473,2.211,2.449,2.449,0,0,0,.948.184,2.5,2.5,0,0,0,1.218-.289,2.02,2.02,0,0,0,.827-.856,2.982,2.982,0,0,0,.3-1.4v-.151H524.7Z" transform="translate(-462.464 -107.102)" fill="#90ceca"/>
    <path id="Path_151" data-name="Path 151" d="M566.436,121.6l-1.838,4.633h1.07l.308-.84h1.816l.3.84h1.089l-1.818-4.633Zm-.152,2.953.606-1.653.6,1.653Z" transform="translate(-499.848 -107.659)" fill="#90ceca"/>
    <path id="Path_152" data-name="Path 152" d="M609.922,125.333v-3.728h-1.03v4.633h3.084v-.905Z" transform="translate(-539.062 -107.659)" fill="#90ceca"/>
    <path id="Path_153" data-name="Path 153" d="M336.908,18.318a3.223,3.223,0,0,0-1.463-.326h-3.566v8.535h1.9V23.42h1.668a3.172,3.172,0,0,0,1.463-.333,2.565,2.565,0,0,0,1.034-.943,2.931,2.931,0,0,0,0-2.889,2.525,2.525,0,0,0-1.034-.937m-.641,3.058a1.105,1.105,0,0,1-.459.423,1.41,1.41,0,0,1-.641.145h-1.39V19.467h1.39a1.413,1.413,0,0,1,.641.145,1.108,1.108,0,0,1,.459.423,1.255,1.255,0,0,1,.169.665,1.28,1.28,0,0,1-.169.677" transform="translate(-293.818 -15.929)" fill="#90ceca"/>
    <path id="Path_154" data-name="Path 154" d="M394.5,44.75l-1.171-3.568h-1.995l2.242,5.472-1.336,2.882h1.9l1.04-2.454,2.515-5.9H395.7Z" transform="translate(-346.452 -36.459)" fill="#90ceca"/>
    <path id="Path_155" data-name="Path 155" d="M456.184,23.7a2.891,2.891,0,0,1-1.137.206,2.635,2.635,0,0,1-1.022-.193,2.3,2.3,0,0,1-.8-.544,2.489,2.489,0,0,1-.52-.846,3.085,3.085,0,0,1-.188-1.1,3.05,3.05,0,0,1,.188-1.088,2.491,2.491,0,0,1,.52-.846,2.238,2.238,0,0,1,.8-.538,2.714,2.714,0,0,1,1.022-.187,2.78,2.78,0,0,1,1.106.206,2.4,2.4,0,0,1,.816.568l1.269-1.281a4.4,4.4,0,0,0-1.384-.895,4.71,4.71,0,0,0-1.807-.326,4.65,4.65,0,0,0-1.771.332,4.356,4.356,0,0,0-1.42.925,4.228,4.228,0,0,0-.943,1.4,4.615,4.615,0,0,0,0,3.47,4.319,4.319,0,0,0,2.376,2.345,4.652,4.652,0,0,0,1.771.332,4.773,4.773,0,0,0,1.831-.327,4.7,4.7,0,0,0,1.408-.895l-1.281-1.281a2.512,2.512,0,0,1-.834.568" transform="translate(-398.901 -14.901)" fill="#90ceca"/>
    <path id="Path_156" data-name="Path 156" d="M525.852,40.421a3.355,3.355,0,0,0-1.644-.4,3.316,3.316,0,0,0-1.644.405,3.09,3.09,0,0,0-1.148,1.094,2.918,2.918,0,0,0-.423,1.559,2.981,2.981,0,0,0,.423,1.572,3.043,3.043,0,0,0,1.155,1.106,3.527,3.527,0,0,0,3.282,0A3.058,3.058,0,0,0,527,44.652a2.983,2.983,0,0,0,.423-1.572A2.952,2.952,0,0,0,527,41.515a3.029,3.029,0,0,0-1.148-1.094m-.478,3.391a1.178,1.178,0,0,1-.465.5,1.373,1.373,0,0,1-.7.175,1.347,1.347,0,0,1-.689-.175,1.214,1.214,0,0,1-.471-.5,1.626,1.626,0,0,1,0-1.445,1.223,1.223,0,0,1,.471-.489,1.453,1.453,0,0,1,1.384,0,1.25,1.25,0,0,1,.465.483,1.472,1.472,0,0,1,.169.719,1.588,1.588,0,0,1-.163.731" transform="translate(-461.243 -35.432)" fill="#90ceca"/>
    <path id="Path_157" data-name="Path 157" d="M590.522,41.252a2.26,2.26,0,0,0-.792-.816,2.161,2.161,0,0,0-1.154-.308,2.562,2.562,0,0,0-1.215.284,2.127,2.127,0,0,0-.429.3v-.465h-1.85v5.875h1.85V42.776a1.076,1.076,0,0,1,.133-.538.922.922,0,0,1,.363-.363,1.08,1.08,0,0,1,.532-.127.976.976,0,0,1,.719.284,1.006,1.006,0,0,1,.284.743v3.349h1.85v-3.76a2.2,2.2,0,0,0-.29-1.112" transform="translate(-517.983 -35.526)" fill="#90ceca"/>
  </g>
</svg>
