<?xml version="1.0" encoding="utf-8"?>
<!-- Generator: Adobe Illustrator 26.3.1, SVG Export Plug-In . SVG Version: 6.00 Build 0)  -->
<svg version="1.1" id="Layer_1" xmlns="http://www.w3.org/2000/svg" xmlns:xlink="http://www.w3.org/1999/xlink" x="0px" y="0px"
	 viewBox="0 0 1000 500" style="enable-background:new 0 0 1000 500;" xml:space="preserve">
<style type="text/css">
	.st0{fill:#FF5A47;}
</style>
<path d="M337.1,151.6c3.2,0,6.3,0.9,8.9,2.7c2.6,1.7,4.7,4.2,5.9,7.1c1.2,2.9,1.5,6.2,0.9,9.2c-0.6,3.1-2.2,6-4.3,8.1
	c-2.3,2.3-5.1,3.7-8.1,4.3c-3.1,0.6-6.3,0.3-9.2-0.9c-2.9-1.2-5.4-3.3-7.2-5.9c-1.7-2.6-2.7-5.7-2.7-8.9c0-4.2,1.7-8.2,4.7-11.2
	C328.9,153.3,332.9,151.6,337.1,151.6L337.1,151.6z M337.1,333.4c-1.8,0-3.6-0.3-5.2-0.9c-1.7-0.6-3.2-1.6-4.4-3
	c-1.3-1.2-2.3-2.8-3-4.4c-0.6-1.7-1-3.4-0.9-5.2V216.6c0-3.6,1.5-7,4-9.6c2.5-2.5,6-4,9.6-4c3.5,0,7.1,1.5,9.7,4
	c2.5,2.5,3.9,6,3.9,9.6v103.1c0,1.8-0.3,3.6-0.9,5.2c-0.6,1.7-1.6,3.2-2.9,4.4c-1.3,1.3-2.8,2.3-4.4,3c-1.7,0.6-3.4,1-5.3,0.9
	L337.1,333.4z"/>
<path d="M435.3,334.6c-16.5,0.3-32.8-5-46.1-14.7c-1.7-1.4-3.1-3-4.2-5c-1-1.9-1.5-4.1-1.6-6.3c0-5.8,4.6-9.6,10.4-9.6
	c4,0,7.8,1.5,10.8,4.1c9.4,7.1,20.9,11.1,32.7,11.2c15.7,0,24.1-5.8,24.1-14.7c0-9.9-8.1-13.7-28.4-19.2
	c-35.6-9.5-48.6-21.7-48.6-42.6s19.9-35.9,51.2-35.9c12.4,0,24.7,2.9,35.9,8.1c7.8,3.8,13.3,8.4,13.3,14.2c0,5.3-2.9,10.2-10.4,10.2
	c-4.2-0.4-8.3-1.7-11.8-4.1c-8.5-4.5-17.9-6.9-27.5-6.7c-14.4,0-24.3,3.7-24.3,13.9c0,10.2,8.7,13,29.6,19.1
	c31.3,9,47.4,17.4,47.4,40.9C487.7,319,469.8,334.6,435.3,334.6"/>
<path d="M566.3,334.6c-16.5,0.3-32.7-5-46-14.7c-1.7-1.4-3.2-3-4.2-5c-1-1.9-1.5-4.1-1.6-6.3c0-5.8,4.6-9.6,10.4-9.6
	c4,0,7.8,1.5,10.8,4.1c9.4,7.1,20.9,11.1,32.7,11.2c15.7,0,24.1-5.8,24.1-14.7c0-9.9-8.1-13.7-28.4-19.2
	c-35.6-9.5-48.7-21.7-48.7-42.6s20-35.9,51.3-35.9c12.4,0,24.7,2.8,35.9,8.1c7.8,3.8,13.5,8.4,13.5,14.2c0,5.3-2.9,10.2-10.5,10.2
	c-4.2-0.4-8.3-1.7-11.8-4.1c-8.5-4.5-17.9-6.9-27.5-6.7c-14.4,0-24.3,3.7-24.3,13.9c0,10.2,8.7,13,29.5,19.1
	c31.3,9,47.5,17.4,47.5,40.9c0,21.4-17.9,37-52.4,37"/>
<path d="M645,274.1v-57.3c0-3.6,1.5-7,4-9.6c2.5-2.5,6-4,9.7-4c3.6,0,7,1.5,9.6,4c2.5,2.5,4,6,4,9.6v60.6
	c0,18.3,14.2,32.5,33.3,32.5c19.1,0,33.6-14.2,33.6-32.5v-60.6c0-3.6,1.5-7,4-9.6c2.5-2.5,6-4,9.6-4c3.6,0,7.1,1.5,9.7,4
	c2.5,2.5,4,6,4,9.6v57.3c0,33.9-25.8,60.5-60.8,60.5c-35.1,0-60.5-26.7-60.5-60.5"/>
<path d="M796.5,274.1v-57.3c0-1.8,0.2-3.7,0.9-5.3c0.6-1.7,1.6-3.3,2.9-4.6c1.3-1.4,2.8-2.4,4.5-3.1c1.7-0.7,3.5-1.1,5.3-1.1
	s3.6,0.3,5.3,1.1c1.7,0.7,3.3,1.8,4.5,3.1c1.2,1.3,2.2,2.9,2.9,4.6c0.6,1.7,0.9,3.5,0.9,5.3v60.6c0,18.3,14.2,32.5,33.4,32.5
	c19.2,0,33.6-14.2,33.6-32.5v-60.6c0-3.6,1.5-7,4-9.6c2.5-2.5,6-4,9.6-4c3.5,0,7,1.5,9.6,4c2.5,2.5,4,6,4,9.6v57.3
	c0,33.9-25.8,60.5-60.8,60.5S796.6,307.9,796.5,274.1"/>
<path class="st0" d="M182.9,199.4c-9.9-0.1-19.7,2.8-28.1,8.2c-8.3,5.4-14.9,13.3-18.8,22.4c-3.9,9.1-5,19.2-3.2,29.1
	c1.8,9.8,6.6,18.8,13.5,25.9c6.9,7.2,15.9,12,25.7,14c9.7,2.1,19.9,1.2,29.1-2.6c9.2-3.7,17.1-10.1,22.8-18.3s8.7-18,8.7-28
	c0.1-13.4-5.1-26.2-14.4-35.8c-9.4-9.6-22.1-15-35.5-15.1L182.9,199.4z M182.2,275.3c-5.1,0-9.9-1.6-14.2-4.4
	c-4.2-2.8-7.4-6.9-9.3-11.6c-1.9-4.7-2.4-9.8-1.4-14.7c1-5,3.5-9.5,7.1-13c3.6-3.5,8.1-6,13.1-6.9c5-0.9,10.1-0.4,14.7,1.5
	c4.6,2,8.6,5.2,11.4,9.5c2.8,4.2,4.2,9.1,4.2,14.2c0,6.8-2.8,13.2-7.7,18c-4.9,4.8-11.4,7.4-18,7.3"/>
<path class="st0" d="M181.7,151.1H90.8c-2.2,0-4.2,0.9-5.8,2.4s-2.4,3.6-2.4,5.8v90.8c0,19.6,5.8,38.8,16.7,55
	c10.8,16.3,26.4,29,44.5,36.5c18.1,7.5,38,9.5,57.3,5.6c19.3-3.8,36.9-13.2,50.7-27.1c13.8-13.8,23.3-31.6,27.1-50.7
	c3.8-19.2,1.9-39.1-5.6-57.3c-7.5-18.1-20.2-33.6-36.5-44.5C220.5,156.8,201.4,151,181.7,151.1L181.7,151.1z M113.6,248.8
	c0.2-13.7,4.3-26.8,12-38.2c7.7-11.2,18.5-20,31.1-25c12.7-5.1,26.5-6.3,39.8-3.5c13.3,2.8,25.5,9.5,35.1,19.2
	c9.5,9.6,16,22,18.5,35.4c2.5,13.4,1,27.2-4.3,39.7c-5.3,12.6-14.3,23.1-25.7,30.6c-11.4,7.4-24.7,11.4-38.3,11.2
	c-9,0-18-2-26.3-5.5s-15.8-8.7-22.2-15.2C127,291,122,283.4,118.6,275c-3.3-8.4-5.1-17.4-5-26.4V248.8z"/>
</svg>
