<svg xmlns="http://www.w3.org/2000/svg" xmlns:xlink="http://www.w3.org/1999/xlink" width="91" height="25.685" viewBox="0 0 91 25.685">
  <defs>
    <clipPath id="clip-path">
      <rect id="Rectangle_112" data-name="Rectangle 112" width="91" height="25.685" fill="none"/>
    </clipPath>
  </defs>
  <g id="Group_551" data-name="Group 551" transform="translate(0 0)">
    <g id="Group_550" data-name="Group 550" transform="translate(0 0)" clip-path="url(#clip-path)">
      <path id="Path_158" data-name="Path 158" d="M14.174,48.551c0-.036,0-.057,0-.057,0,.019,0,.038,0,.057" transform="translate(-10.614 -36.314)" fill="#90ceca"/>
      <path id="Path_159" data-name="Path 159" d="M25.19,41.471a1.7,1.7,0,0,0-2.868,1.277l-.012.091a10.9,10.9,0,0,1-.536,4.178,9.18,9.18,0,0,1-2.24,3.378,9.321,9.321,0,0,1-3.595,2.127q-.336.107-.678.189A9.265,9.265,0,0,1,3.866,42.944c-.026.246-.221,1.215-1.713,1.3A1.515,1.515,0,0,1,.441,43.039a11.125,11.125,0,0,0,.323,3.63A12.686,12.686,0,0,0,25.78,44a3.131,3.131,0,0,0-.59-2.525M24.5,43.14a.5.5,0,1,1,.5-.5.5.5,0,0,1-.5.5" transform="translate(-0.306 -30.708)" fill="#90ceca"/>
      <path id="Path_160" data-name="Path 160" d="M25.291,10.248A12.838,12.838,0,0,0,2.024,5.736,12.742,12.742,0,0,0,.307,9.552L.25,9.764a3.571,3.571,0,0,0-.14,2.094A1.871,1.871,0,0,0,1.6,13.086,1.852,1.852,0,0,0,3.67,11.655L3.7,11.58l.007-.023A10.879,10.879,0,0,1,5.18,7.674,9.048,9.048,0,0,1,8.1,4.958,9.2,9.2,0,0,1,12.025,3.75c.23-.017.462-.025.693-.025a9.01,9.01,0,0,1,5.7,2,9.149,9.149,0,0,1,3.173,5.016l.124.524.167-.513a1.763,1.763,0,0,1,1.347-.992,1.8,1.8,0,0,1,1.8.611l.4.513ZM23.15,9.467a2.34,2.34,0,0,0-1.365.837,9.416,9.416,0,0,0-9.067-6.881c-.238,0-.478.009-.715.026A9.5,9.5,0,0,0,7.946,4.7,9.354,9.354,0,0,0,4.93,7.5a11.133,11.133,0,0,0-1.518,3.979l-.029.075-.007.022a1.551,1.551,0,0,1-2.982.18A3.3,3.3,0,0,1,.541,9.843C.561,9.771.58,9.7.6,9.629A12.452,12.452,0,0,1,2.275,5.9,12.536,12.536,0,0,1,24.888,9.83a2.012,2.012,0,0,0-1.738-.363" transform="translate(0 0)" fill="#90ceca"/>
      <path id="Path_161" data-name="Path 161" d="M3.847,43.487a.5.5,0,1,0,.5.5.5.5,0,0,0-.5-.5" transform="translate(-2.504 -32.565)" fill="#90ceca"/>
      <path id="Path_162" data-name="Path 162" d="M311.715,18.41a7.158,7.158,0,0,0,.772-.89,2.919,2.919,0,0,0,.418-.825,3.072,3.072,0,0,0,.13-.913,2.664,2.664,0,0,0-.348-1.379,2.326,2.326,0,0,0-.978-.907,3.27,3.27,0,0,0-1.491-.318,3.562,3.562,0,0,0-1.756.424,3.344,3.344,0,0,0-1.261,1.261l1.237,1.072a2.726,2.726,0,0,1,.76-.866,1.558,1.558,0,0,1,.89-.265,1.189,1.189,0,0,1,.819.277.963.963,0,0,1,.312.76,1.238,1.238,0,0,1-.083.442,2.08,2.08,0,0,1-.259.465,4.418,4.418,0,0,1-.471.542l-3.193,3.3v1.037H313.2V20.047h-3.131Z" transform="translate(-230.047 -9.868)" fill="#90ceca"/>
      <path id="Path_163" data-name="Path 163" d="M339.445,13.714a3.358,3.358,0,0,0-3.641,0,3.645,3.645,0,0,0-1.261,1.5,5.15,5.15,0,0,0-.459,2.245,5.137,5.137,0,0,0,.465,2.245,3.681,3.681,0,0,0,1.278,1.514,3.2,3.2,0,0,0,1.815.542,3.159,3.159,0,0,0,1.809-.536,3.7,3.7,0,0,0,1.261-1.5,5.129,5.129,0,0,0,.466-2.251,5.129,5.129,0,0,0-.466-2.251,3.681,3.681,0,0,0-1.267-1.5m-.336,5.208a1.91,1.91,0,0,1-.583.9,1.482,1.482,0,0,1-1.8-.006,1.887,1.887,0,0,1-.583-.9,4.583,4.583,0,0,1-.2-1.461,4.588,4.588,0,0,1,.2-1.461,1.813,1.813,0,0,1,.583-.884,1.506,1.506,0,0,1,1.8.006,1.912,1.912,0,0,1,.583.89,4.47,4.47,0,0,1,.206,1.461,4.479,4.479,0,0,1-.206,1.455" transform="translate(-250.177 -9.868)" fill="#90ceca"/>
      <path id="Path_164" data-name="Path 164" d="M310.84,60.252a7.158,7.158,0,0,0,.772-.89,2.919,2.919,0,0,0,.418-.825,3.072,3.072,0,0,0,.13-.913,2.665,2.665,0,0,0-.348-1.379,2.326,2.326,0,0,0-.978-.907,3.27,3.27,0,0,0-1.491-.318,3.562,3.562,0,0,0-1.756.424,3.344,3.344,0,0,0-1.261,1.261l1.237,1.072a2.726,2.726,0,0,1,.76-.866,1.558,1.558,0,0,1,.89-.265,1.189,1.189,0,0,1,.819.277.963.963,0,0,1,.312.76,1.238,1.238,0,0,1-.083.442,2.08,2.08,0,0,1-.259.465,4.424,4.424,0,0,1-.471.542l-3.193,3.3v1.037h5.986V61.889h-3.131Z" transform="translate(-229.391 -41.201)" fill="#90ceca"/>
      <path id="Path_165" data-name="Path 165" d="M339.836,61.889l1.647-1.638a7.161,7.161,0,0,0,.772-.89,2.919,2.919,0,0,0,.418-.825,3.072,3.072,0,0,0,.13-.913,2.665,2.665,0,0,0-.348-1.379,2.324,2.324,0,0,0-.978-.907,3.269,3.269,0,0,0-1.49-.318,3.563,3.563,0,0,0-1.756.424,3.348,3.348,0,0,0-1.261,1.261l1.237,1.072a2.725,2.725,0,0,1,.76-.866,1.559,1.559,0,0,1,.89-.265,1.189,1.189,0,0,1,.819.277.964.964,0,0,1,.312.76,1.244,1.244,0,0,1-.082.442,2.081,2.081,0,0,1-.259.465,4.4,4.4,0,0,1-.471.542l-3.193,3.3v1.037h5.986V61.889Z" transform="translate(-252.338 -41.201)" fill="#90ceca"/>
      <path id="Path_166" data-name="Path 166" d="M134.492,68.23a2.031,2.031,0,0,0-.92-.206h-2.245V73.4h1.194V71.441h1.051a2,2,0,0,0,.92-.209,1.61,1.61,0,0,0,.651-.594,1.844,1.844,0,0,0,0-1.819,1.584,1.584,0,0,0-.651-.59m-.4,1.926a.7.7,0,0,1-.289.266.889.889,0,0,1-.4.091h-.875v-1.56h.875a.886.886,0,0,1,.4.091.7.7,0,0,1,.289.266.787.787,0,0,1,.106.418.8.8,0,0,1-.106.426" transform="translate(-98.344 -50.939)" fill="#90ceca"/>
      <path id="Path_167" data-name="Path 167" d="M154.1,68.456a2.756,2.756,0,0,0-.9-.586,3.091,3.091,0,0,0-2.237,0,2.705,2.705,0,0,0-1.488,1.465,2.917,2.917,0,0,0,0,2.188,2.693,2.693,0,0,0,.6.887,2.816,2.816,0,0,0,.9.594,2.909,2.909,0,0,0,1.123.213A2.868,2.868,0,0,0,153.211,73a2.755,2.755,0,0,0,.894-.59,2.713,2.713,0,0,0,.594-.883,2.926,2.926,0,0,0,0-2.192,2.685,2.685,0,0,0-.6-.883m-.613,2.861a1.444,1.444,0,0,1-.559.6,1.627,1.627,0,0,1-.841.213,1.7,1.7,0,0,1-.655-.122,1.413,1.413,0,0,1-.506-.346,1.564,1.564,0,0,1-.323-.536,2,2,0,0,1-.114-.693,1.879,1.879,0,0,1,.2-.887,1.431,1.431,0,0,1,.559-.586,1.649,1.649,0,0,1,.841-.209,1.731,1.731,0,0,1,.651.118,1.425,1.425,0,0,1,.506.343,1.539,1.539,0,0,1,.327.533,1.972,1.972,0,0,1,.115.689,1.911,1.911,0,0,1-.2.887" transform="translate(-111.776 -50.667)" fill="#90ceca"/>
      <path id="Path_168" data-name="Path 168" d="M177.9,70.986a1.531,1.531,0,0,0,.639-.552,1.6,1.6,0,0,0,0-1.648,1.559,1.559,0,0,0-.632-.559,2.067,2.067,0,0,0-.936-.2H174.78V73.4h1.195V71.184h.125l1.6,2.215h1.416l-1.723-2.256a1.94,1.94,0,0,0,.506-.157m-1.926-2.032h.86a.743.743,0,0,1,.548.19.714.714,0,0,1,0,.974.774.774,0,0,1-.552.183h-.852Z" transform="translate(-130.883 -50.94)" fill="#90ceca"/>
      <path id="Path_169" data-name="Path 169" d="M191.932,69.067h1.681V73.4h1.2v-4.33h1.681V68.024h-4.558Z" transform="translate(-143.727 -50.94)" fill="#90ceca"/>
      <path id="Path_170" data-name="Path 170" d="M215.567,71.359a1.093,1.093,0,0,1-.133.552.924.924,0,0,1-.361.358,1.088,1.088,0,0,1-.533.126,1.121,1.121,0,0,1-.529-.126.923.923,0,0,1-.376-.361,1.089,1.089,0,0,1-.137-.556V68.025h-1.2v3.257a2.25,2.25,0,0,0,.285,1.138,2.034,2.034,0,0,0,.792.78,2.365,2.365,0,0,0,1.168.282A2.341,2.341,0,0,0,215.7,73.2a2.022,2.022,0,0,0,.784-.776,2.254,2.254,0,0,0,.282-1.134V68.025h-1.2Z" transform="translate(-158.975 -50.94)" fill="#90ceca"/>
      <path id="Path_171" data-name="Path 171" d="M235.51,71.117l1.542.025a1.439,1.439,0,0,1-.115.306,1.219,1.219,0,0,1-.51.518,1.663,1.663,0,0,1-.8.179,1.573,1.573,0,0,1-.822-.213,1.515,1.515,0,0,1-.564-.594,1.831,1.831,0,0,1-.205-.883,1.776,1.776,0,0,1,.209-.879,1.487,1.487,0,0,1,.582-.586,1.7,1.7,0,0,1,.845-.209,1.81,1.81,0,0,1,.791.168,1.684,1.684,0,0,1,.609.5l.814-.814a2.575,2.575,0,0,0-.94-.692,3.079,3.079,0,0,0-1.26-.251,3.011,3.011,0,0,0-1.127.209,2.813,2.813,0,0,0-.917.586,2.722,2.722,0,0,0-.612.879,2.671,2.671,0,0,0-.221,1.088,2.742,2.742,0,0,0,1.709,2.565,2.84,2.84,0,0,0,1.1.213,2.9,2.9,0,0,0,1.412-.335,2.343,2.343,0,0,0,.959-.993,3.457,3.457,0,0,0,.346-1.625V70.1H235.51Z" transform="translate(-174.337 -50.691)" fill="#90ceca"/>
      <path id="Path_172" data-name="Path 172" d="M257.3,68.025,255.171,73.4h1.24l.357-.974h2.106l.352.974h1.264l-2.108-5.373Zm-.176,3.425.7-1.917.693,1.917Z" transform="translate(-191.084 -50.94)" fill="#90ceca"/>
      <path id="Path_173" data-name="Path 173" d="M279.822,72.348V68.025h-1.195V73.4H282.2v-1.05Z" transform="translate(-208.648 -50.94)" fill="#90ceca"/>
      <path id="Path_174" data-name="Path 174" d="M137.762,13.532a3.738,3.738,0,0,0-1.7-.378h-4.136v9.9h2.2v-3.6h1.935a3.68,3.68,0,0,0,1.7-.386,2.978,2.978,0,0,0,1.2-1.094,3.4,3.4,0,0,0,0-3.351,2.929,2.929,0,0,0-1.2-1.086m-.743,3.547a1.281,1.281,0,0,1-.533.491,1.637,1.637,0,0,1-.743.169H134.13V14.864h1.612a1.64,1.64,0,0,1,.743.168,1.284,1.284,0,0,1,.533.491,1.455,1.455,0,0,1,.2.771,1.484,1.484,0,0,1-.2.785" transform="translate(-98.794 -9.85)" fill="#90ceca"/>
      <path id="Path_175" data-name="Path 175" d="M167.085,29.573l-1.358-4.138h-2.313l2.6,6.346-1.549,3.343h2.2l1.206-2.846,2.916-6.842h-2.314Z" transform="translate(-122.371 -19.047)" fill="#90ceca"/>
      <path id="Path_176" data-name="Path 176" d="M201.292,20.5a3.351,3.351,0,0,1-1.318.238,3.054,3.054,0,0,1-1.185-.224,2.664,2.664,0,0,1-.925-.631,2.885,2.885,0,0,1-.6-.982,3.575,3.575,0,0,1-.217-1.276,3.537,3.537,0,0,1,.217-1.262,2.89,2.89,0,0,1,.6-.982,2.594,2.594,0,0,1,.925-.624,3.147,3.147,0,0,1,1.185-.217,3.225,3.225,0,0,1,1.283.238,2.783,2.783,0,0,1,.946.659l1.472-1.486a5.109,5.109,0,0,0-1.605-1.038,5.46,5.46,0,0,0-2.1-.378,5.394,5.394,0,0,0-2.054.386A5.05,5.05,0,0,0,196.273,14a4.905,4.905,0,0,0-1.094,1.619,5.352,5.352,0,0,0,0,4.024,5.009,5.009,0,0,0,2.755,2.72,5.394,5.394,0,0,0,2.054.386,5.534,5.534,0,0,0,2.124-.379,5.445,5.445,0,0,0,1.634-1.038l-1.486-1.486a2.914,2.914,0,0,1-.967.659" transform="translate(-145.865 -9.391)" fill="#90ceca"/>
      <path id="Path_177" data-name="Path 177" d="M237.714,25.284a3.888,3.888,0,0,0-1.907-.463,3.843,3.843,0,0,0-1.907.47,3.58,3.58,0,0,0-1.332,1.269,3.382,3.382,0,0,0-.491,1.809,3.455,3.455,0,0,0,.491,1.823,3.528,3.528,0,0,0,1.339,1.283,4.089,4.089,0,0,0,3.807,0,3.545,3.545,0,0,0,1.332-1.283,3.458,3.458,0,0,0,.491-1.823,3.423,3.423,0,0,0-.491-1.816,3.513,3.513,0,0,0-1.332-1.269m-.554,3.933a1.365,1.365,0,0,1-.54.575,1.591,1.591,0,0,1-.813.2,1.562,1.562,0,0,1-.8-.2,1.406,1.406,0,0,1-.547-.575,1.885,1.885,0,0,1,0-1.675,1.418,1.418,0,0,1,.547-.568,1.685,1.685,0,0,1,1.605,0,1.448,1.448,0,0,1,.54.561,1.707,1.707,0,0,1,.2.834,1.844,1.844,0,0,1-.189.848" transform="translate(-173.79 -18.587)" fill="#90ceca"/>
      <path id="Path_178" data-name="Path 178" d="M272.327,26.181a2.623,2.623,0,0,0-.918-.946,2.508,2.508,0,0,0-1.339-.357,2.972,2.972,0,0,0-1.409.329,2.468,2.468,0,0,0-.5.35v-.539h-2.145v6.814h2.145V27.947a1.249,1.249,0,0,1,.154-.624,1.072,1.072,0,0,1,.421-.421,1.254,1.254,0,0,1,.617-.147,1.131,1.131,0,0,1,.834.329,1.167,1.167,0,0,1,.33.862v3.884h2.145V27.471a2.557,2.557,0,0,0-.337-1.29" transform="translate(-199.206 -18.629)" fill="#90ceca"/>
    </g>
  </g>
</svg>
