<?xml version="1.0" encoding="UTF-8" standalone="no"?>
<!-- Created with Inkscape (http://www.inkscape.org/) -->

<svg
   width="310mm"
   height="376mm"
   viewBox="0 0 310 376"
   version="1.1"
   id="svg12"
   inkscape:version="1.1.1 (3bf5ae0d25, 2021-09-20)"
   sodipodi:docname="bg-pycon.svg"
   xmlns:inkscape="http://www.inkscape.org/namespaces/inkscape"
   xmlns:sodipodi="http://sodipodi.sourceforge.net/DTD/sodipodi-0.dtd"
   xmlns="http://www.w3.org/2000/svg"
   xmlns:svg="http://www.w3.org/2000/svg">
  <sodipodi:namedview
     id="namedview14"
     pagecolor="#ffffff"
     bordercolor="#666666"
     borderopacity="1.0"
     inkscape:pageshadow="2"
     inkscape:pageopacity="0.0"
     inkscape:pagecheckerboard="0"
     inkscape:document-units="mm"
     showgrid="false"
     inkscape:zoom="0.46880731"
     inkscape:cx="-41.594914"
     inkscape:cy="778.57147"
     inkscape:window-width="1920"
     inkscape:window-height="1011"
     inkscape:window-x="424"
     inkscape:window-y="1472"
     inkscape:window-maximized="1"
     inkscape:current-layer="layer1" />
  <defs
     id="defs9">
    <clipPath
       id="clip-path">
      <rect
         id="Rectangle_19"
         data-name="Rectangle 19"
         width="154.936"
         height="156.123"
         fill="none" />
    </clipPath>
    <clipPath
       id="clip-path-0">
      <rect
         id="Rectangle_19-6"
         data-name="Rectangle 19"
         width="154.936"
         height="156.123"
         fill="none" />
    </clipPath>
  </defs>
  <g
     inkscape:label="Layer 1"
     inkscape:groupmode="layer"
     id="layer1">
    <rect
       id="Rectangle_18"
       data-name="Rectangle 18"
       width="310"
       height="376"
       fill="#90ceca"
       x="0"
       y="0"
       style="stroke-width:0.264583" />
    <g
       id="Group_16"
       data-name="Group 16"
       clip-path="url(#clip-path)"
       style="opacity:0.1"
       transform="matrix(1.0004253,0,0,0.99950794,0,31.989897)">
      <path
         id="Path_72"
         data-name="Path 72"
         d="m 40.367,138.454 c 0.023,-0.219 0.024,-0.345 0.024,-0.345 -0.01,0.115 -0.014,0.23 -0.024,0.345"
         transform="translate(-18.729,-64.077)"
         fill="#ffffff" />
      <path
         id="Path_73"
         data-name="Path 73"
         d="m 151.8,119.606 a 10.342,10.342 0 0 0 -17.436,7.762 l -0.073,0.555 c 0.216,8.758 -0.209,17.326 -3.262,25.394 a 55.778,55.778 0 0 1 -13.615,20.532 56.657,56.657 0 0 1 -21.851,12.929 q -2.039,0.651 -4.122,1.151 A 56.318,56.318 0 0 1 22.183,128.562 c -0.155,1.5 -1.342,7.386 -10.415,7.919 -9.183,0.54 -10.4,-7.342 -10.4,-7.342 A 67.615,67.615 0 0 0 3.326,151.2 77.109,77.109 0 0 0 155.384,134.951 c 0.115,-5.2 0.7,-11.3 -3.588,-15.346 m -4.2,10.145 a 3.059,3.059 0 1 1 3.059,-3.059 3.059,3.059 0 0 1 -3.059,3.059"
         transform="translate(-0.541,-54.185)"
         fill="#ffffff" />
      <path
         id="Path_74"
         data-name="Path 74"
         d="M 153.734,62.292 A 78.039,78.039 0 0 0 1.866,58.063 C 1.754,58.487 1.637,58.916 1.52,59.35 0.436,63.342 -0.793,67.866 0.67,72.08 a 11.374,11.374 0 0 0 9.045,7.462 11.162,11.162 0 0 0 1.589,0.114 11.315,11.315 0 0 0 11,-8.81 l 0.176,-0.458 0.041,-0.136 c 1.613,-7.53 3.94,-16.223 8.964,-23.606 A 55.025,55.025 0 0 1 49.224,30.139 55.909,55.909 0 0 1 73.1,22.792 c 1.394,-0.1 2.81,-0.153 4.21,-0.153 a 54.772,54.772 0 0 1 34.621,12.154 55.623,55.623 0 0 1 19.284,30.49 l 0.753,3.185 1.015,-3.117 c 0.057,-0.177 1.488,-4.353 8.185,-6.027 6.635,-1.657 10.756,3.47 10.946,3.714 l 2.416,3.119 z m -13.017,-4.749 a 14.214,14.214 0 0 0 -8.3,5.087 A 57.237,57.237 0 0 0 77.305,20.8 c -1.444,0 -2.9,0.053 -4.344,0.158 a 57.747,57.747 0 0 0 -24.66,7.59 56.864,56.864 0 0 0 -18.331,17.065 c -5.187,7.621 -7.577,16.5 -9.227,24.183 l -0.175,0.456 -0.04,0.135 A 9.428,9.428 0 0 1 2.4,71.478 C 1.123,67.8 2.223,63.749 3.287,59.831 c 0.118,-0.438 0.236,-0.872 0.35,-1.3 a 75.65,75.65 0 0 1 10.193,-22.65 76.2,76.2 0 0 1 137.451,23.872 12.231,12.231 0 0 0 -10.564,-2.21"
         fill="#ffffff" />
      <path
         id="Path_75"
         data-name="Path 75"
         d="m 12.583,123.849 a 3.059,3.059 0 1 0 3.059,3.059 3.059,3.059 0 0 0 -3.059,-3.059"
         transform="translate(-4.419,-57.461)"
         fill="#ffffff" />
    </g>
    <g
       id="Group_16-1"
       data-name="Group 16"
       clip-path="url(#clip-path-0)"
       style="opacity:0.1"
       transform="matrix(1.0004253,0,0,0.99950794,155,219.9899)">
      <path
         id="Path_72-2"
         data-name="Path 72"
         d="m 40.367,138.454 c 0.023,-0.219 0.024,-0.345 0.024,-0.345 -0.01,0.115 -0.014,0.23 -0.024,0.345"
         transform="translate(-18.729,-64.077)"
         fill="#ffffff" />
      <path
         id="Path_73-8"
         data-name="Path 73"
         d="m 151.8,119.606 a 10.342,10.342 0 0 0 -17.436,7.762 l -0.073,0.555 c 0.216,8.758 -0.209,17.326 -3.262,25.394 a 55.778,55.778 0 0 1 -13.615,20.532 56.657,56.657 0 0 1 -21.851,12.929 q -2.039,0.651 -4.122,1.151 A 56.318,56.318 0 0 1 22.183,128.562 c -0.155,1.5 -1.342,7.386 -10.415,7.919 -9.183,0.54 -10.4,-7.342 -10.4,-7.342 A 67.615,67.615 0 0 0 3.326,151.2 77.109,77.109 0 0 0 155.384,134.951 c 0.115,-5.2 0.7,-11.3 -3.588,-15.346 m -4.2,10.145 a 3.059,3.059 0 1 1 3.059,-3.059 3.059,3.059 0 0 1 -3.059,3.059"
         transform="translate(-0.541,-54.185)"
         fill="#ffffff" />
      <path
         id="Path_74-1"
         data-name="Path 74"
         d="M 153.734,62.292 A 78.039,78.039 0 0 0 1.866,58.063 C 1.754,58.487 1.637,58.916 1.52,59.35 0.436,63.342 -0.793,67.866 0.67,72.08 a 11.374,11.374 0 0 0 9.045,7.462 11.162,11.162 0 0 0 1.589,0.114 11.315,11.315 0 0 0 11,-8.81 l 0.176,-0.458 0.041,-0.136 c 1.613,-7.53 3.94,-16.223 8.964,-23.606 A 55.025,55.025 0 0 1 49.224,30.139 55.909,55.909 0 0 1 73.1,22.792 c 1.394,-0.1 2.81,-0.153 4.21,-0.153 a 54.772,54.772 0 0 1 34.621,12.154 55.623,55.623 0 0 1 19.284,30.49 l 0.753,3.185 1.015,-3.117 c 0.057,-0.177 1.488,-4.353 8.185,-6.027 6.635,-1.657 10.756,3.47 10.946,3.714 l 2.416,3.119 z m -13.017,-4.749 a 14.214,14.214 0 0 0 -8.3,5.087 A 57.237,57.237 0 0 0 77.305,20.8 c -1.444,0 -2.9,0.053 -4.344,0.158 a 57.747,57.747 0 0 0 -24.66,7.59 56.864,56.864 0 0 0 -18.331,17.065 c -5.187,7.621 -7.577,16.5 -9.227,24.183 l -0.175,0.456 -0.04,0.135 A 9.428,9.428 0 0 1 2.4,71.478 C 1.123,67.8 2.223,63.749 3.287,59.831 c 0.118,-0.438 0.236,-0.872 0.35,-1.3 a 75.65,75.65 0 0 1 10.193,-22.65 76.2,76.2 0 0 1 137.451,23.872 12.231,12.231 0 0 0 -10.564,-2.21"
         fill="#ffffff" />
      <path
         id="Path_75-9"
         data-name="Path 75"
         d="m 12.583,123.849 a 3.059,3.059 0 1 0 3.059,3.059 3.059,3.059 0 0 0 -3.059,-3.059"
         transform="translate(-4.419,-57.461)"
         fill="#ffffff" />
    </g>
  </g>
</svg>
