<svg width="375" height="375" xmlns="http://www.w3.org/2000/svg">
 <g id="Layer_1">
  <title>Layer 1</title>
  <g id="svg_18">
   <rect x="-10" y="-10" fill="#90ceca" height="483" width="440" data-name="Rectangle 18" id="svg_1"/>
  </g>
  <g id="svg_19">
   <defs transform="translate(0 -1) translate(0 -0.478401) translate(-109.664 -107.983) translate(110.033 0) translate(0 109.451)">
    <clipPath id="svg_4">
     <rect x="0.36951" y="-0.01013" fill="none" height="156.123" width="154.936" data-name="Rectangle 19" id="svg_9"/>
    </clipPath>
   </defs>
   <g opacity="0.1" data-name="Group 73" id="svg_2">
    <g clip-path="url(#svg_4)" data-name="Group 16" id="svg_3">
     <path fill="#fff" d="m22.00751,74.36687c0.023,-0.219 0.024,-0.345 0.024,-0.345c-0.01,0.115 -0.014,0.23 -0.024,0.345" data-name="Path 72" id="svg_8"/>
     <path fill="#fff" d="m151.62851,65.41087a10.342,10.342 0 0 0 -17.436,7.762l-0.073,0.555c0.216,8.758 -0.209,17.326 -3.262,25.394a55.778,55.778 0 0 1 -13.615,20.532a56.657,56.657 0 0 1 -21.851,12.929q-2.039,0.651 -4.122,1.151a56.318,56.318 0 0 1 -69.258,-59.367c-0.155,1.5 -1.342,7.386 -10.415,7.919c-9.183,0.54 -10.4,-7.342 -10.4,-7.342a67.615,67.615 0 0 0 1.958,22.061a77.109,77.109 0 0 0 152.058,-16.249c0.115,-5.2 0.7,-11.3 -3.588,-15.346m-4.2,10.145a3.059,3.059 0 1 1 3.059,-3.059a3.059,3.059 0 0 1 -3.059,3.059" data-name="Path 73" id="svg_7"/>
     <path fill="#fff" d="m154.10351,62.28187a78.039,78.039 0 0 0 -151.868,-4.229c-0.112,0.424 -0.229,0.853 -0.346,1.287c-1.084,3.992 -2.313,8.516 -0.85,12.73a11.374,11.374 0 0 0 9.045,7.462a11.162,11.162 0 0 0 1.589,0.114a11.315,11.315 0 0 0 11,-8.81l0.176,-0.458l0.041,-0.136c1.613,-7.53 3.94,-16.223 8.964,-23.606a55.025,55.025 0 0 1 17.739,-16.507a55.909,55.909 0 0 1 23.876,-7.347c1.394,-0.1 2.81,-0.153 4.21,-0.153a54.772,54.772 0 0 1 34.621,12.154a55.623,55.623 0 0 1 19.284,30.49l0.753,3.185l1.015,-3.117c0.057,-0.177 1.488,-4.353 8.185,-6.027c6.635,-1.657 10.756,3.47 10.946,3.714l2.416,3.119l-0.796,-3.865zm-13.017,-4.749a14.214,14.214 0 0 0 -8.3,5.087a57.237,57.237 0 0 0 -55.112,-41.83c-1.444,0 -2.9,0.053 -4.344,0.158a57.747,57.747 0 0 0 -24.66,7.59a56.864,56.864 0 0 0 -18.331,17.065c-5.187,7.621 -7.577,16.5 -9.227,24.183l-0.175,0.456l-0.04,0.135a9.428,9.428 0 0 1 -18.128,1.091c-1.277,-3.678 -0.177,-7.729 0.887,-11.647c0.118,-0.438 0.236,-0.872 0.35,-1.3a75.65,75.65 0 0 1 10.193,-22.65a76.2,76.2 0 0 1 137.451,23.872a12.231,12.231 0 0 0 -10.564,-2.21" data-name="Path 74" id="svg_6"/>
     <path fill="#fff" d="m8.53351,66.37787a3.059,3.059 0 1 0 3.059,3.059a3.059,3.059 0 0 0 -3.059,-3.059" data-name="Path 75" id="svg_5"/>
    </g>
   </g>
  </g>
  <g id="svg_20">
   <defs transform="translate(0 14) translate(0 -0.461594) translate(-0.0325165 0) translate(109 64) translate(110.033 0) translate(0 109.451)">
    <clipPath id="svg_12">
     <rect x="219.00085" y="186.98991" fill="none" height="156.123" width="154.936" data-name="Rectangle 19" id="svg_17"/>
    </clipPath>
   </defs>
   <g opacity="0.1" data-name="Group 73" id="svg_10">
    <g clip-path="url(#svg_12)" data-name="Group 16" id="svg_11">
     <path fill="#fff" d="m240.63885,261.36691c0.023,-0.219 0.024,-0.345 0.024,-0.345c-0.01,0.115 -0.014,0.23 -0.024,0.345" data-name="Path 72" id="svg_16"/>
     <path fill="#fff" d="m370.25985,252.41091a10.342,10.342 0 0 0 -17.436,7.762l-0.073,0.555c0.216,8.758 -0.209,17.326 -3.262,25.394a55.778,55.778 0 0 1 -13.615,20.532a56.657,56.657 0 0 1 -21.851,12.929q-2.039,0.651 -4.122,1.151a56.318,56.318 0 0 1 -69.258,-59.367c-0.155,1.5 -1.342,7.386 -10.415,7.919c-9.183,0.54 -10.4,-7.342 -10.4,-7.342a67.615,67.615 0 0 0 1.958,22.061a77.109,77.109 0 0 0 152.058,-16.249c0.115,-5.2 0.7,-11.3 -3.588,-15.346m-4.2,10.145a3.059,3.059 0 1 1 3.059,-3.059a3.059,3.059 0 0 1 -3.059,3.059" data-name="Path 73" id="svg_15"/>
     <path fill="#fff" d="m372.73485,249.28191a78.039,78.039 0 0 0 -151.868,-4.229c-0.112,0.424 -0.229,0.853 -0.346,1.287c-1.084,3.992 -2.313,8.516 -0.85,12.73a11.374,11.374 0 0 0 9.045,7.462a11.162,11.162 0 0 0 1.589,0.114a11.315,11.315 0 0 0 11,-8.81l0.176,-0.458l0.041,-0.136c1.613,-7.53 3.94,-16.223 8.964,-23.606a55.025,55.025 0 0 1 17.739,-16.507a55.909,55.909 0 0 1 23.876,-7.347c1.394,-0.1 2.81,-0.153 4.21,-0.153a54.772,54.772 0 0 1 34.621,12.154a55.623,55.623 0 0 1 19.284,30.49l0.753,3.185l1.015,-3.117c0.057,-0.177 1.488,-4.353 8.185,-6.027c6.635,-1.657 10.756,3.47 10.946,3.714l2.416,3.119l-0.796,-3.865zm-13.017,-4.749a14.214,14.214 0 0 0 -8.3,5.087a57.237,57.237 0 0 0 -55.112,-41.83c-1.444,0 -2.9,0.053 -4.344,0.158a57.747,57.747 0 0 0 -24.66,7.59a56.864,56.864 0 0 0 -18.331,17.065c-5.187,7.621 -7.577,16.5 -9.227,24.183l-0.175,0.456l-0.04,0.135a9.428,9.428 0 0 1 -18.128,1.091c-1.277,-3.678 -0.177,-7.729 0.887,-11.647c0.118,-0.438 0.236,-0.872 0.35,-1.3a75.65,75.65 0 0 1 10.193,-22.65a76.2,76.2 0 0 1 137.451,23.872a12.231,12.231 0 0 0 -10.564,-2.21" data-name="Path 74" id="svg_14"/>
     <path fill="#fff" d="m227.16485,253.37791a3.059,3.059 0 1 0 3.059,3.059a3.059,3.059 0 0 0 -3.059,-3.059" data-name="Path 75" id="svg_13"/>
    </g>
   </g>
  </g>
 </g>
</svg>